<svg xmlns="http://www.w3.org/2000/svg" viewBox="0 0 100 100">
  <defs>
    <linearGradient id="grad" x1="0%" y1="0%" x2="100%" y2="100%">
      <stop offset="0%" style="stop-color:#0EA5E9;stop-opacity:1" />
      <stop offset="100%" style="stop-color:#8B5CF6;stop-opacity:1" />
    </linearGradient>
  </defs>
  
  <!-- Background rounded square -->
  <rect width="100" height="100" rx="20" fill="url(#grad)"/>
  
  <!-- Hammer icon (Lucide hammer) -->
  <g transform="translate(25, 25) scale(2.08)">
    <path d="m15 12-8.5 8.5c-.83.83-2.17.83-3 0 0 0 0 0 0 0a2.12 2.12 0 0 1 0-3L12 9" 
          stroke="white" stroke-width="2" stroke-linecap="round" stroke-linejoin="round" fill="none"/>
    <path d="M17.64 15 22 10.64" 
          stroke="white" stroke-width="2" stroke-linecap="round" stroke-linejoin="round" fill="none"/>
    <path d="m20.91 11.7-1.25-1.25c-.6-.6-.93-1.4-.93-2.25v-.86L16.01 4.6a5.56 5.56 0 0 0-3.94-1.64H9l.92.82A6.18 6.18 0 0 1 12 8.4v1.56l2 2h2.47l2.26 1.91" 
          stroke="white" stroke-width="2" stroke-linecap="round" stroke-linejoin="round" fill="none"/>
  </g>
</svg>
